<?xml version="1.0" encoding="utf-8"?>
<svg viewBox="5.989 33.683 497.754 117.514" xmlns="http://www.w3.org/2000/svg" xmlns:bx="https://boxy-svg.com">
  <defs>
    <style bx:fonts="Satisfy">@import url(https://fonts.googleapis.com/css2?family=Satisfy%3Aital%2Cwght%400%2C400&amp;display=swap);</style>
  </defs>
  <text style="fill: rgb(51, 51, 51); font-family: Satisfy; font-size: 27.758001px; font-weight: 700;" transform="matrix(3.3294129371643066, 0, 0, 3.8339891433715816, -288.3016662597656, -596.965576171875)" x="89.072" y="186.377">When i Cried</text>
  <path style="stroke: rgb(5, 3, 3); fill: rgb(25, 178, 215); transform-origin: 385.813087px 52.658857px;" d="M 379.613 41.259 C 384.34 40.02 382.826 47.157 380.454 52.033 C 378.806 58.196 380.381 61.561 381.034 62.493 C 384.915 68.029 389.445 65.785 390.975 63.099 C 392.411 59.67 392.029 57.35 391.743 55.176 C 391.354 52.212 390.52 50.29 389.457 47.923 C 387.176 42.843 382.778 36.099 379.613 41.259 Z" transform="matrix(0.998963117599, -0.045521005988, 0.045521005988, 0.998963117599, -0.008665937257, 0.015260649451)"/>
  <path style="stroke: rgb(5, 3, 3); fill: rgb(25, 178, 215); transform-origin: 246.874985px 52.890622px;" d="M 240.69 41.514 C 245.417 40.275 243.903 47.412 241.531 52.288 C 239.883 58.451 241.458 61.816 242.111 62.748 C 245.992 68.284 250.522 66.04 252.052 63.354 C 253.488 59.925 253.106 57.605 252.82 55.431 C 252.431 52.467 251.597 50.545 250.534 48.178 C 248.253 43.098 243.855 36.354 240.69 41.514 Z" transform="matrix(0.998963117599, -0.045521005988, 0.045521005988, 0.998963117599, -0.000134734383, 0.00018884344)"/>
</svg>